<svg xmlns="http://www.w3.org/2000/svg" viewBox="0 0 550 550"><path d="M501.203 300.293a38.442 38.442 0 0 0-17.536 4.194L363.66 365h-16.154a38.58 38.58 0 0 0 4.978-19c0-21.505-17.599-39-39.231-39h-124.7c-1.52 0-3.019.346-4.384 1.013L99 349.559v-1.988C99 333.71 87.37 322 73.604 322H33.621C20.045 322 9 333.471 9 347.57v127.943C9 489.244 19.815 500 33.621 500h39.982C87.607 500 99 489.016 99 475.514V474h94.55c.597 0 1.192-.054 1.78-.159l199.163-36.018a9.995 9.995 0 0 0 2.733-.917l122.141-61.771c19.383-9.832 27.169-33.574 17.356-52.925-6.855-13.519-20.466-21.917-35.52-21.917zM79 475.514c0 2.771-2.801 4.486-5.396 4.486H33.621c-2.807 0-4.621-1.761-4.621-4.486V347.57c0-2.635 1.898-5.57 4.621-5.57h39.982c2.724 0 5.396 2.759 5.396 5.57v127.944zm431.331-118.221L389.5 418.401 192.653 454H99v-82.189L190.862 327h122.392c10.604 0 19.231 8.523 19.231 19s-8.627 19-19.231 19H202c-5.523 0-10 4.478-10 10s4.477 10 10 10h164.039a9.998 9.998 0 0 0 4.502-1.071l122.152-61.595a18.65 18.65 0 0 1 8.51-2.041c7.366 0 14.307 4.303 17.684 10.962 4.825 9.516.983 21.199-8.556 26.038zM167.234 158.43c0 59.896 48.729 108.624 108.625 108.624s108.624-48.729 108.624-108.624c0-59.896-48.729-108.625-108.624-108.625S167.234 98.533 167.234 158.43zm197.249 0c0 48.867-39.756 88.624-88.624 88.624s-88.625-39.757-88.625-88.624c0-48.868 39.757-88.625 88.625-88.625s88.624 39.757 88.624 88.625z" fill="#595bd4" class="color000000 svgShape"></path><path d="M265.931 89.63v16.945c-17.466 3.114-27.842 14.527-27.842 29.399 0 16.081 11.759 24.382 29.917 30.953 12.796 4.67 18.849 9.683 18.849 17.465 0 8.301-7.437 13.662-18.331 13.662-10.549 0-20.232-3.632-26.976-7.608l-4.67 16.255c6.226 4.15 17.12 7.263 28.015 7.609v16.774h14.181v-17.812c19.021-3.112 29.224-16.083 29.224-30.781 0-15.39-8.646-24.729-28.014-31.992-14.7-5.878-20.924-9.856-20.924-16.945 0-5.88 4.323-12.106 16.428-12.106 11.758 0 19.367 3.978 23.518 5.881l4.669-15.909c-5.534-2.769-12.97-5.361-23.864-5.708V89.63h-14.18z" fill="#595bd4" class="color000000 svgShape"></path></svg>