<svg xmlns="http://www.w3.org/2000/svg" viewBox="0 0 24 24"><g data-name="Layer 2" fill="#595bd4" class="color000000 svgShape"><path d="M21,2H3A1,1,0,0,0,2,3V21a1,1,0,0,0,1,1H21a1,1,0,0,0,1-1V3A1,1,0,0,0,21,2ZM20,20H4V4H20Z" fill="#595bd4" class="color000000 svgShape"></path><path d="M9.55,15.89a1,1,0,0,0,1-.09l4-3a1,1,0,0,0,0-1.6l-4-3A1,1,0,0,0,9,9v6A1,1,0,0,0,9.55,15.89ZM11,11l1.33,1L11,13Z" fill="#595bd4" class="color000000 svgShape"></path><rect width="2" height="2" x="5" y="5" fill="#595bd4" class="color000000 svgShape"></rect><rect width="2" height="2" x="9" y="5" fill="#595bd4" class="color000000 svgShape"></rect><rect width="2" height="2" x="13" y="5" fill="#595bd4" class="color000000 svgShape"></rect><rect width="2" height="2" x="17" y="5" fill="#595bd4" class="color000000 svgShape"></rect><rect width="2" height="2" x="5" y="17" fill="#595bd4" class="color000000 svgShape"></rect><rect width="2" height="2" x="9" y="17" fill="#595bd4" class="color000000 svgShape"></rect><rect width="2" height="2" x="13" y="17" fill="#595bd4" class="color000000 svgShape"></rect><rect width="2" height="2" x="17" y="17" fill="#595bd4" class="color000000 svgShape"></rect></g></svg>