<svg xmlns="http://www.w3.org/2000/svg" viewBox="0 0 64 64"><path d="M15.875 9c-.227.003-.466.04-.688.063-8.44.418-15.03 7.062-15.03 7.062a.52.52 0 0 0 0 .719s6.589 6.705 15.03 7.125c.273.013.537.031.813.031a7.87 7.87 0 0 0 .75-.031c8.472-.39 15.094-7.125 15.094-7.125a.52.52 0 0 0 0-.719S24.833 9 16 9h-.125zm.094 1h.125c.177.001.355.024.531.031.02.002.042-.002.063 0 3.26.36 5.812 3.123 5.812 6.469 0 3.368-2.585 6.136-5.875 6.469-.209.02-.41.03-.625.031-.235 0-.456-.021-.688-.031C12.03 22.637 9.5 19.87 9.5 16.5a6.457 6.457 0 0 1 5.719-6.438c.25-.029.492-.062.75-.062zm-4.75.719A7.504 7.504 0 0 0 8.5 16.5a7.567 7.567 0 0 0 2.719 5.813c-5.456-1.573-9.375-5.3-9.906-5.813.516-.5 4.436-4.207 9.906-5.781zm9.531 0c5.485 1.57 9.42 5.28 9.938 5.781-.533.514-4.467 4.245-9.938 5.813A7.534 7.534 0 0 0 23.5 16.5c0-2.326-1.074-4.404-2.75-5.781zm-5.332.311a4.48 4.48 0 0 0-4.343 3.312.524.524 0 0 0 .343.628.524.524 0 0 0 .625-.346 3.489 3.489 0 0 1 3.375-2.594.52.52 0 0 0 .507-.5.52.52 0 0 0-.507-.5zM16 13.5c-1.653 0-3 1.352-3 3s1.347 3 3 3 3-1.348 3-3c0-1.651-1.347-3-3-3zm0 1c1.113 0 2 .892 2 2s-.887 2-2 2-2-.888-2-2c0-1.111.887-2 2-2z" color="#000" font-family="Sans" font-weight="400" overflow="visible" style="text-indent:0;text-align:start;line-height:normal;text-transform:none;block-progression:tb;marker:none;-inkscape-font-specification:Sans" fill="#595bd4" class="color000000 svgShape"></path></svg>